<svg width="476" height="626" viewBox="0 0 476 626" fill="none" xmlns="http://www.w3.org/2000/svg">
<path opacity="0.05" d="M476 238.513C476 242.115 476 248.29 476 257.038C476 265.272 475.743 274.277 475.229 284.054C474.714 293.831 474.2 302.837 473.686 311.07C473.171 319.304 472.143 324.964 470.6 328.052C464.428 339.373 454.142 349.407 439.741 358.155C425.854 366.389 412.739 371.792 400.395 374.365C393.709 375.909 387.023 376.938 380.337 377.453C373.651 377.967 366.708 378.482 359.507 378.996C344.078 380.025 328.391 381.055 312.447 382.084C297.018 382.598 281.588 383.37 266.159 384.4C264.616 399.837 263.844 415.018 263.844 429.941C263.844 437.145 264.873 445.121 266.93 453.869C268.988 462.103 271.302 469.564 273.874 476.254L124.207 479.342V289.457L138.865 290.229C141.437 290.744 146.837 291.001 155.066 291.001C163.296 290.487 172.81 290.229 183.611 290.229C194.412 289.715 205.727 289.2 217.556 288.686C229.385 288.171 240.443 287.399 250.729 286.37C261.53 285.341 270.788 284.312 278.502 283.282C286.217 281.739 291.103 279.938 293.16 277.879C301.904 271.189 307.561 263.471 310.133 254.723C312.704 245.46 313.99 235.683 313.99 225.391C313.99 191.942 304.475 166.213 285.446 148.202C266.93 130.192 241.214 121.186 208.298 121.186C196.469 121.186 182.068 123.502 165.096 128.133C148.123 132.764 130.636 138.425 112.635 145.115C95.1486 151.29 78.1761 157.979 61.718 165.184C45.2599 172.388 32.1448 178.306 22.3728 182.937C18.2582 153.091 14.4009 123.245 10.8006 93.3983C7.20043 63.552 3.60022 33.963 0 4.63132C34.9735 3.60214 69.6899 2.57296 104.149 1.54377C139.123 0.514591 174.353 0 209.841 0C217.556 0 230.157 0 247.643 0C265.645 0 284.417 0.514591 303.961 1.54377C324.019 2.05836 342.792 3.08755 360.279 4.63132C377.766 5.6605 390.109 7.20427 397.31 9.26264C410.682 13.3794 423.797 20.3263 436.655 30.1036C449.513 39.3662 458.77 50.4299 464.428 63.2947C466.485 67.926 468.285 78.4751 469.828 94.942C471.371 111.409 472.4 129.162 472.914 148.202C473.943 167.242 474.714 185.51 475.229 203.006C475.743 220.502 476 232.338 476 238.513ZM273.874 555.758C273.874 565.021 271.045 573.769 265.387 582.003C259.73 590.236 252.529 597.698 243.786 604.387C235.557 611.077 226.556 616.223 216.784 619.825C207.527 623.942 198.783 626 190.554 626C182.84 626 174.61 624.456 165.867 621.369C157.638 618.796 149.923 614.936 142.723 609.79C136.037 605.159 130.379 599.241 125.75 592.037C121.122 584.833 118.807 576.857 118.807 568.109C118.807 558.331 121.636 549.583 127.293 541.864C133.465 533.631 140.923 526.684 149.666 521.023C158.41 515.363 167.924 511.246 178.211 508.673C188.497 505.586 198.012 504.042 206.755 504.042C220.642 504.042 233.243 507.387 244.558 514.076C256.387 520.252 265.13 530.029 270.788 543.408C272.845 547.01 273.874 551.127 273.874 555.758Z" fill="#3A3A3A"/>
</svg>
